# xmcd
#
# Track frame offsets:
#	151
#	12505
#	23363
#	33353
#	45165
#	54056
#	63358
#	73058
#	85248
#	94665
#	106626
#	118163
#	128935
#	138641
#	147940
#	158821
#	169813
#	180091
#	192051
#	201920
#	213290
#	224334
#	234195
#	246808
#	257753
#	268276
#
# Disc length: 3736
#
# Revision: 3
# Processed by: cddbd v1.5.1PL0 Copyright (c) Steve Scherf et al.
# Submitted via: CDex 1.40Release
# Normalized: r2:TDELIM( - )
#
DISCID=620e961a
DTITLE=Various Artist - The Specialty Story - Disc 4
DYEAR=1900
DGENRE=
TTITLE0=Tony Allen and The Champs - Nite Owl
TTITLE1=Little Richard - Tutti Frutti
TTITLE2=Ernest Kador - Eternity
TTITLE3=Li'l Millet and His Creoles - Rich Woman
TTITLE4=Clifton Chenier - Squeeze Box Boogie
TTITLE5=Soul Stirrers w/Sam Cooke - Touch The Hem Of His Garment
TTITLE6=Little Richard - Long Tall Sally
TTITLE7=Little Richard - Slippin' And Slidin' (Peepin' And Hidin')
TTITLE8=Arthur Lee Maye and The Crowns - Oh-Rooba-Lee
TTITLE9=Arthur Lee Maye and The Crowns - Gloria
TTITLE10=Bob Landers w/Willie Joe And His Unitar - Cherokee Dance
TTITLE11=Little Richard - Rip It Up
TTITLE12=Little Richard - Ready Teddy
TTITLE13=Vernon Green and The Phantoms - Sweet Breeze
TTITLE14=Roy Montrell - (Every Time I Hear That) Mellow Saxaphone
TTITLE15=Little Richard - She's Got It
TTITLE16=Little Richard - Heeby Jeebies
TTITLE17=Wynona Carr - Should I Ever Love Again
TTITLE18=Big Boy Myles and The Shaw-Wees - Just To Hold My Hand
TTITLE19=Little Richard - The Girl Can't Help It
TTITLE20=Little Richard - All Around The World
TTITLE21=Art Neville - Oooh-Whee Baby
TTITLE22=Larry Williams - Just Because
TTITLE23=Little Richard - Lucille
TTITLE24=Little Richard - Send Me Some Lovin'
TTITLE25=Eugene Church - Open Up Your Heart
EXTD=
EXTT0=
EXTT1=
EXTT2=
EXTT3=
EXTT4=
EXTT5=
EXTT6=
EXTT7=
EXTT8=
EXTT9=
EXTT10=
EXTT11=
EXTT12=
EXTT13=
EXTT14=
EXTT15=
EXTT16=
EXTT17=
EXTT18=
EXTT19=
EXTT20=
EXTT21=
EXTT22=
EXTT23=
EXTT24=
EXTT25=
PLAYORDER=
